<svg width="451" height="115" viewBox="0 0 451 115" fill="none" xmlns="http://www.w3.org/2000/svg">
<path d="M73.1064 75.5996C73.1064 77.7334 72.7044 79.7435 71.9004 81.6299C71.0964 83.4854 69.9985 85.1089 68.6069 86.5005C67.2463 87.8921 65.6227 88.9899 63.7363 89.7939C61.8809 90.598 59.8862 91 57.7524 91H13.3604V81.4907H57.7524C58.5874 81.4907 59.3605 81.3516 60.0718 81.0732C60.814 80.764 61.4479 80.3465 61.9736 79.8208C62.5303 79.2642 62.9632 78.6302 63.2725 77.9189C63.5817 77.2077 63.7363 76.4346 63.7363 75.5996C63.7363 74.7646 63.5817 73.9915 63.2725 73.2803C62.9632 72.5381 62.5303 71.9041 61.9736 71.3784C61.4479 70.8218 60.814 70.3888 60.0718 70.0796C59.3605 69.7703 58.5874 69.6157 57.7524 69.6157H28.668C26.5651 69.6157 24.5859 69.2137 22.7305 68.4097C20.875 67.6056 19.2515 66.5078 17.8599 65.1162C16.4683 63.6937 15.3704 62.0392 14.5664 60.1528C13.7624 58.2664 13.3604 56.2563 13.3604 54.1226C13.3604 52.0506 13.7624 50.0869 14.5664 48.2314C15.3704 46.3451 16.4683 44.7061 17.8599 43.3145C19.2515 41.9229 20.875 40.825 22.7305 40.021C24.5859 39.186 26.5651 38.7686 28.668 38.7686H69.6274V48.1387H28.668C27.8639 48.1387 27.0908 48.3088 26.3486 48.6489C25.6374 48.9582 25.0189 49.3911 24.4932 49.9478C23.9674 50.4735 23.55 51.1074 23.2407 51.8496C22.9315 52.5609 22.7769 53.3185 22.7769 54.1226C22.7769 54.9575 22.9315 55.7461 23.2407 56.4883C23.55 57.1995 23.9674 57.8335 24.4932 58.3901C25.0189 58.9159 25.6374 59.3333 26.3486 59.6426C27.0908 59.9518 27.8639 60.1064 28.668 60.1064H57.7524C59.8862 60.1064 61.8809 60.5239 63.7363 61.3589C65.6227 62.1629 67.2463 63.2762 68.6069 64.6987C69.9985 66.0903 71.0964 67.7293 71.9004 69.6157C72.7044 71.5021 73.1064 73.4967 73.1064 75.5996ZM152.37 75.5996C152.37 77.7334 151.86 79.7435 150.839 81.6299C149.85 83.4854 148.489 85.1089 146.757 86.5005C145.057 87.8921 143.046 88.9899 140.727 89.7939C138.408 90.598 135.949 91 133.352 91H92.485V81.4907H133.352C134.65 81.4907 135.872 81.3516 137.016 81.0732C138.191 80.764 139.212 80.3465 140.078 79.8208C140.944 79.2642 141.624 78.6302 142.119 77.9189C142.614 77.2077 142.861 76.4346 142.861 75.5996V73.2339H111.411C108.813 73.2339 106.355 72.7391 104.035 71.7495C101.747 70.729 99.7368 69.3683 98.005 67.6675C96.3041 65.9357 94.9589 63.9256 93.9693 61.6372C92.9798 59.3179 92.485 56.8439 92.485 54.2153V38.7686H101.901V54.2153C101.901 55.5451 102.149 56.7975 102.644 57.9727C103.138 59.1169 103.819 60.1219 104.685 60.9878C105.551 61.8228 106.556 62.4876 107.7 62.9824C108.875 63.4772 110.112 63.7246 111.411 63.7246H142.861V38.7686H152.37V75.5996ZM215.259 91H205.75V64.6987C205.75 62.4103 205.317 60.2611 204.451 58.251C203.585 56.2409 202.395 54.4937 200.88 53.0093C199.395 51.494 197.633 50.3034 195.592 49.4375C193.581 48.5716 191.432 48.1387 189.144 48.1387H186.453V91H176.944V38.7686H189.144C191.37 38.7686 193.52 39.0469 195.592 39.6035C197.663 40.1292 199.612 40.8869 201.436 41.8765C203.292 42.8351 204.993 44.0103 206.539 45.4019C208.116 46.7935 209.492 48.3397 210.667 50.0405C211.873 48.3397 213.234 46.7935 214.749 45.4019C216.295 44.0103 217.965 42.8351 219.759 41.8765C221.553 40.8869 223.454 40.1292 225.465 39.6035C227.475 39.0469 229.578 38.7686 231.773 38.7686H243.926V91H234.417V48.1387H231.773C229.485 48.1387 227.335 48.6025 225.325 49.5303C223.346 50.458 221.599 51.7259 220.084 53.334C218.599 54.9421 217.424 56.8285 216.558 58.9932C215.692 61.1579 215.259 63.4618 215.259 65.9048V91ZM330.937 75.4141C330.937 77.5788 330.519 79.6043 329.684 81.4907C328.88 83.3771 327.767 85.0316 326.345 86.4541C324.922 87.8457 323.252 88.959 321.335 89.7939C319.448 90.598 317.423 91 315.258 91H283.251V81.3979H315.258C316.124 81.3979 316.928 81.2433 317.67 80.9341C318.412 80.6248 319.046 80.2074 319.572 79.6816C320.129 79.125 320.562 78.491 320.871 77.7798C321.18 77.0376 321.335 76.249 321.335 75.4141C321.335 74.5482 321.18 73.7441 320.871 73.002C320.562 72.2598 320.129 71.6258 319.572 71.1001C319.046 70.5435 318.412 70.1105 317.67 69.8013C316.928 69.492 316.124 69.3374 315.258 69.3374H283.251V59.7354H307.465C308.393 59.7044 309.259 59.5343 310.063 59.2251C310.867 58.9159 311.563 58.5138 312.15 58.019C312.769 57.4933 313.248 56.8903 313.588 56.21C313.928 55.4987 314.098 54.741 314.098 53.937C314.098 53.1021 313.944 52.3444 313.635 51.6641C313.325 50.9528 312.892 50.3343 312.336 49.8086C311.81 49.2829 311.176 48.8809 310.434 48.6025C309.723 48.2933 308.95 48.1387 308.115 48.1387H278.752V91H269.057V38.583H308.115C310.248 38.583 312.258 38.985 314.145 39.7891C316.062 40.5931 317.717 41.6909 319.108 43.0825C320.531 44.4432 321.644 46.0667 322.448 47.9531C323.283 49.8086 323.7 51.8032 323.7 53.937C323.7 55.2977 323.515 56.5811 323.144 57.7871C322.804 58.9932 322.324 60.1219 321.706 61.1733C323.067 61.7918 324.304 62.5959 325.417 63.5854C326.561 64.5441 327.535 65.6419 328.339 66.8789C329.174 68.1159 329.808 69.4611 330.241 70.9146C330.705 72.3371 330.937 73.8369 330.937 75.4141ZM361.587 91H352.171V38.7686H361.587V91ZM415.57 91H406.061V48.1387H380.919V38.7686H440.666V48.1387H415.57V91Z" fill="#F58A07"/>
<line x1="2.5" y1="6.5" x2="448.5" y2="6.5" stroke="#F58A07" stroke-width="5" stroke-linecap="round"/>
<line x1="2.5" y1="112.5" x2="448.5" y2="112.5" stroke="#F58A07" stroke-width="5" stroke-linecap="round"/>
</svg>
